<?xml version="1.0" encoding="UTF-8" standalone="no"?>
<!-- Created with Inkscape (http://www.inkscape.org/) -->

<svg
   width="127.99999mm"
   height="128.00002mm"
   viewBox="0 0 127.99999 128.00002"
   version="1.1"
   id="svg1"
   inkscape:export-filename="plaster.png"
   inkscape:export-xdpi="2.0525253"
   inkscape:export-ydpi="2.0525253"
   xmlns:inkscape="http://www.inkscape.org/namespaces/inkscape"
   xmlns:sodipodi="http://sodipodi.sourceforge.net/DTD/sodipodi-0.dtd"
   xmlns="http://www.w3.org/2000/svg"
   xmlns:svg="http://www.w3.org/2000/svg">
  <sodipodi:namedview
     id="namedview1"
     pagecolor="#ffffff"
     bordercolor="#000000"
     borderopacity="0.25"
     inkscape:showpageshadow="2"
     inkscape:pageopacity="0.0"
     inkscape:pagecheckerboard="0"
     inkscape:deskcolor="#d1d1d1"
     inkscape:document-units="mm"
     showgrid="false"
     showguides="true">
    <inkscape:grid
       id="grid1"
       units="mm"
       originx="-0.33691362"
       originy="-44.695267"
       spacingx="0.99999998"
       spacingy="1"
       empcolor="#0099e5"
       empopacity="0.30196078"
       color="#0099e5"
       opacity="0.14901961"
       empspacing="5"
       enabled="true"
       visible="false" />
    <inkscape:page
       x="-1.5134368e-24"
       y="1.4392119e-20"
       width="127.99999"
       height="128.00002"
       id="page2"
       margin="0"
       bleed="0" />
  </sodipodi:namedview>
  <defs
     id="defs1" />
  <g
     inkscape:label="Layer 1"
     inkscape:groupmode="layer"
     id="layer1"
     transform="translate(-0.33691363,-44.695263)">
    <path
       style="fill:#000000;stroke-width:1.86021"
       d="M 49.307767,170.92439 C -6.1261276,148.51551 -2.6003289,150.66112 3.8339148,143.25138 19.610644,125.08275 42.493524,108.99255 65.915556,99.598362 c 4.71495,-1.891099 4.823264,-1.971115 5.366048,-3.964277 0.941318,-3.456742 3.393014,-7.031936 18.871243,-27.519137 17.571013,-23.257189 17.749423,-23.434037 23.626623,-23.4192 14.28769,0.03627 19.18485,12.387067 9.58853,24.183088 -6.46419,7.945984 -25.006593,27.917995 -30.102001,32.422884 -5.911563,5.22644 -5.672021,4.79246 -5.672021,10.27706 0,17.93838 -7.974902,36.53684 -23.644513,55.14201 -5.696048,6.76313 -7.224538,7.20196 -14.641698,4.2036 z M 89.519834,102.82815 C 104.38471,89.968234 124.52595,66.580618 126.74424,59.60386 c 2.31128,-7.269072 -3.56351,-13.376688 -12.86676,-13.376688 -5.81495,0 -4.55032,-1.332709 -27.157662,28.619638 -17.601099,23.319621 -17.349936,22.413035 -7.196096,25.97218 4.7904,1.67913 5.402272,2.0302 5.867466,3.36648 0.64823,1.8621 0.25968,1.98986 4.128646,-1.35732 z m -3.609819,-0.0501 c -0.24368,-0.41568 -2.973115,-1.65035 -6.065408,-2.74376 -5.374853,-1.900527 -6.917632,-2.712415 -6.341424,-3.337173 0.310453,-0.336586 5.977899,1.318203 8.594651,2.509462 3.262213,1.485111 4.157824,0.915511 5.490682,-3.492032 0.458667,-1.516811 2.269403,-3.767766 7.279872,-9.04983 3.668134,-3.866971 10.391592,-11.355408 14.941042,-16.640981 4.54944,-5.285574 9.57374,-11.027974 11.16512,-12.760854 1.59139,-1.732912 3.04501,-3.66857 3.23027,-4.301488 0.65778,-2.24713 1.67535,-0.25616 1.67535,3.27799 0,2.971146 -0.13915,3.406624 -1.77251,5.547328 C 109.87123,80.445242 87.12665,104.8533 85.910015,102.77802 Z M 80.50393,93.301973 c -3.682246,-1.249712 -4.895414,-2.219179 -2.127019,-1.699744 2.008155,0.3768 5.908379,2.036981 5.908379,2.514954 0,0.418934 -0.397227,0.333334 -3.78136,-0.81521 z m 27.96576,-37.643147 c -1.57247,-1.193995 -1.16015,-2.827808 1.00283,-3.973515 2.85257,-1.510965 5.13976,-1.657563 6.19202,-0.396853 2.32251,2.78264 -4.12702,6.700458 -7.19485,4.370581 z"
       id="path3"
       inkscape:export-filename="plaster.png"
       inkscape:export-xdpi="50.800003"
       inkscape:export-ydpi="50.800003" />
  </g>
</svg>
